<svg version="1.1" viewBox="0.0 0.0 960.0 720.0" fill="none" stroke="none" stroke-linecap="square" stroke-miterlimit="10" xmlns:xlink="http://www.w3.org/1999/xlink" xmlns="http://www.w3.org/2000/svg"><clipPath id="p.0"><path d="m0 0l960.0 0l0 720.0l-960.0 0l0 -720.0z" clip-rule="nonzero"/></clipPath><g clip-path="url(#p.0)"><path fill="#000000" fill-opacity="0.0" d="m0 0l960.0 0l0 720.0l-960.0 0z" fill-rule="evenodd"/><path fill="#000000" fill-opacity="0.0" d="m354.7533 258.49344l549.2913 0l0 145.44882l-549.2913 0z" fill-rule="evenodd"/><path fill="#ffcd1c" d="m397.95642 323.25406l-21.4375 0l-4.8125 13.359375l-6.96875 0l19.546875 -51.1875l5.90625 0l19.578125 51.1875l-6.921875 0l-4.890625 -13.359375zm-19.40625 -5.5625l17.40625 0l-8.71875 -23.9375l-8.6875 23.9375zm60.191406 15.15625q-3.796875 4.46875 -11.140625 4.46875q-6.078125 0 -9.265625 -3.53125q-3.1875 -3.53125 -3.21875 -10.46875l0 -24.75l6.5 0l0 24.578125q0 8.65625 7.03125 8.65625q7.453125 0 9.921875 -5.5625l0 -27.671875l6.5 0l0 38.046875l-6.1875 0l-0.140625 -3.765625zm14.628906 -15.578125q0 -8.75 4.140625 -14.078125q4.15625 -5.328125 10.875 -5.328125q6.671875 0 10.578125 4.578125l0 -19.828125l6.5 0l0 54.0l-5.96875 0l-0.328125 -4.078125q-3.890625 4.78125 -10.859375 4.78125q-6.609375 0 -10.78125 -5.40625q-4.15625 -5.421875 -4.15625 -14.140625l0 -0.5zm6.5 0.75q0 6.46875 2.671875 10.125q2.671875 3.65625 7.390625 3.65625q6.1875 0 9.03125 -5.5625l0 -17.46875q-2.921875 -5.375 -8.96875 -5.375q-4.78125 0 -7.453125 3.6875q-2.671875 3.6875 -2.671875 10.9375zm54.07422 -13.609375q-1.484375 -0.25 -3.203125 -0.25q-6.390625 0 -8.6875 5.453125l0 27.0l-6.5 0l0 -38.046875l6.328125 0l0.109375 4.40625q3.203125 -5.109375 9.0625 -5.109375q1.90625 0 2.890625 0.5l0 6.046875zm21.085938 32.90625q-7.734375 0 -12.59375 -5.078125q-4.84375 -5.078125 -4.84375 -13.59375l0 -1.1875q0 -5.671875 2.15625 -10.109375q2.171875 -4.453125 6.046875 -6.96875q3.890625 -2.515625 8.4375 -2.515625q7.40625 0 11.515625 4.890625q4.125 4.890625 4.125 14.0l0 2.703125l-25.765625 0q0.140625 5.625 3.28125 9.09375q3.140625 3.453125 8.0 3.453125q3.4375 0 5.828125 -1.40625q2.390625 -1.40625 4.1875 -3.71875l3.96875 3.09375q-4.78125 7.34375 -14.34375 7.34375zm-0.796875 -34.109375q-3.9375 0 -6.609375 2.875q-2.671875 2.859375 -3.3125 8.03125l19.0625 0l0 -0.5q-0.28125 -4.953125 -2.671875 -7.671875q-2.390625 -2.734375 -6.46875 -2.734375zm35.15625 23.875l8.859375 -28.515625l6.953125 0l-15.296875 43.921875q-3.546875 9.484375 -11.28125 9.484375l-1.234375 -0.09375l-2.421875 -0.46875l0 -5.265625l1.765625 0.140625q3.296875 0 5.140625 -1.34375q1.84375 -1.328125 3.046875 -4.875l1.4375 -3.875l-13.5625 -37.625l7.09375 0l9.5 28.515625z" fill-rule="nonzero"/><path fill="#434343" d="m647.64 329.89468q-2.59375 3.734375 -7.265625 5.578125q-4.65625 1.84375 -10.84375 1.84375q-6.25 0 -11.109375 -2.9375q-4.84375 -2.9375 -7.5 -8.34375q-2.65625 -5.421875 -2.71875 -12.5625l0 -4.453125q0 -11.578125 5.390625 -17.9375q5.390625 -6.359375 15.171875 -6.359375q8.015625 0 12.890625 4.09375q4.890625 4.09375 5.984375 11.625l-6.75 0q-1.890625 -10.171875 -12.09375 -10.171875q-6.78125 0 -10.28125 4.765625q-3.5 4.765625 -3.53125 13.796875l0 4.1875q0 8.609375 3.9375 13.703125q3.9375 5.078125 10.65625 5.078125q3.796875 0 6.640625 -0.84375q2.84375 -0.84375 4.703125 -2.859375l0 -11.484375l-11.84375 0l0 -5.484375l18.5625 0l0 18.765625zm28.621094 -25.484375q-1.484375 -0.25 -3.203125 -0.25q-6.390625 0 -8.6875 5.453125l0 27.0l-6.5 0l0 -38.046875l6.328125 0l0.109375 4.40625q3.203125 -5.109375 9.0625 -5.109375q1.90625 0 2.890625 0.5l0 6.046875zm29.457031 28.4375q-3.796875 4.46875 -11.140625 4.46875q-6.078125 0 -9.265625 -3.53125q-3.1875 -3.53125 -3.21875 -10.46875l0 -24.75l6.5 0l0 24.578125q0 8.65625 7.03125 8.65625q7.453125 0 9.921875 -5.5625l0 -27.671875l6.5 0l0 38.046875l-6.1875 0l-0.140625 -3.765625zm22.363281 -34.28125l0.203125 4.78125q4.359375 -5.484375 11.390625 -5.484375q12.0625 0 12.171875 13.609375l0 25.140625l-6.5 0l0 -25.171875q-0.046875 -4.109375 -1.890625 -6.078125q-1.84375 -1.96875 -5.75 -1.96875q-3.15625 0 -5.546875 1.6875q-2.390625 1.6875 -3.734375 4.421875l0 27.109375l-6.5 0l0 -38.046875l6.15625 0zm49.351562 38.75q-7.734375 0 -12.59375 -5.078125q-4.84375 -5.078125 -4.84375 -13.59375l0 -1.1875q0 -5.671875 2.15625 -10.109375q2.171875 -4.453125 6.046875 -6.96875q3.890625 -2.515625 8.4375 -2.515625q7.40625 0 11.515625 4.890625q4.125 4.890625 4.125 14.0l0 2.703125l-25.765625 0q0.140625 5.625 3.28125 9.09375q3.140625 3.453125 8.0 3.453125q3.4375 0 5.828125 -1.40625q2.390625 -1.40625 4.1875 -3.71875l3.96875 3.09375q-4.78125 7.34375 -14.34375 7.34375zm-0.796875 -34.109375q-3.9375 0 -6.609375 2.875q-2.671875 2.859375 -3.3125 8.03125l19.0625 0l0 -0.5q-0.28125 -4.953125 -2.671875 -7.671875q-2.390625 -2.734375 -6.46875 -2.734375zm41.55078 1.203125q-1.484375 -0.25 -3.203125 -0.25q-6.390625 0 -8.6875 5.453125l0 27.0l-6.5 0l0 -38.046875l6.328125 0l0.109375 4.40625q3.203125 -5.109375 9.0625 -5.109375q1.90625 0 2.890625 0.5l0 6.046875z" fill-rule="nonzero"/><path fill="#434343" d="m370.26892 361.86343l7.4375 18.5625l7.4375 -18.5625l3.890625 0l0 22.75l-3.0 0l0 -8.859375l0.28125 -9.5625l-7.46875 18.421875l-2.296875 0l-7.453125 -18.375l0.296875 9.515625l0 8.859375l-3.0 0l0 -22.75l3.875 0zm34.046875 22.75q-0.25 -0.5 -0.40625 -1.78125q-2.015625 2.09375 -4.8125 2.09375q-2.5 0 -4.109375 -1.40625q-1.59375 -1.421875 -1.59375 -3.59375q0 -2.640625 2.0 -4.09375q2.015625 -1.46875 5.65625 -1.46875l2.8125 0l0 -1.328125q0 -1.515625 -0.90625 -2.40625q-0.90625 -0.90625 -2.671875 -0.90625q-1.546875 0 -2.59375 0.78125q-1.046875 0.78125 -1.046875 1.890625l-2.90625 0q0 -1.265625 0.890625 -2.4375q0.90625 -1.1875 2.4375 -1.875q1.546875 -0.6875 3.390625 -0.6875q2.921875 0 4.578125 1.46875q1.65625 1.453125 1.71875 4.015625l0 7.78125q0 2.328125 0.59375 3.703125l0 0.25l-3.03125 0zm-4.796875 -2.203125q1.359375 0 2.578125 -0.703125q1.21875 -0.703125 1.765625 -1.828125l0 -3.46875l-2.265625 0q-5.3125 0 -5.3125 3.109375q0 1.359375 0.90625 2.125q0.90625 0.765625 2.328125 0.765625zm19.9375 -12.109375q-0.65625 -0.109375 -1.421875 -0.109375q-2.84375 0 -3.859375 2.421875l0 12.0l-2.890625 0l0 -16.90625l2.8125 0l0.046875 1.953125q1.421875 -2.265625 4.03125 -2.265625q0.84375 0 1.28125 0.21875l0 2.6875zm7.375 6.484375l-1.8125 1.890625l0 5.9375l-2.890625 0l0 -24.0l2.890625 0l0 14.515625l1.546875 -1.859375l5.265625 -5.5625l3.515625 0l-6.578125 7.0625l7.34375 9.84375l-3.390625 0l-5.890625 -7.828125zm18.203125 8.140625q-3.4375 0 -5.59375 -2.25q-2.15625 -2.265625 -2.15625 -6.046875l0 -0.53125q0 -2.515625 0.953125 -4.484375q0.96875 -1.984375 2.6875 -3.09375q1.734375 -1.125 3.75 -1.125q3.296875 0 5.125 2.171875q1.828125 2.171875 1.828125 6.21875l0 1.203125l-11.453125 0q0.0625 2.5 1.453125 4.046875q1.40625 1.53125 3.5625 1.53125q1.53125 0 2.59375 -0.625q1.0625 -0.625 1.859375 -1.65625l1.765625 1.375q-2.125 3.265625 -6.375 3.265625zm-0.359375 -15.15625q-1.75 0 -2.9375 1.28125q-1.1875 1.265625 -1.46875 3.5625l8.46875 0l0 -0.21875q-0.125 -2.203125 -1.1875 -3.40625q-1.0625 -1.21875 -2.875 -1.21875zm14.21875 -6.15625l0 4.09375l3.15625 0l0 2.234375l-3.15625 0l0 10.484375q0 1.015625 0.421875 1.53125q0.421875 0.5 1.4375 0.5q0.5 0 1.375 -0.1875l0 2.34375q-1.140625 0.3125 -2.21875 0.3125q-1.9375 0 -2.921875 -1.171875q-0.984375 -1.171875 -0.984375 -3.328125l0 -10.484375l-3.078125 0l0 -2.234375l3.078125 0l0 -4.09375l2.890625 0zm9.671875 21.0l-2.890625 0l0 -16.90625l2.890625 0l0 16.90625zm-3.125 -21.390625q0 -0.703125 0.421875 -1.1875q0.4375 -0.484375 1.28125 -0.484375q0.84375 0 1.28125 0.484375q0.4375 0.484375 0.4375 1.1875q0 0.703125 -0.4375 1.171875q-0.4375 0.46875 -1.28125 0.46875q-0.84375 0 -1.28125 -0.46875q-0.421875 -0.46875 -0.421875 -1.171875zm10.484375 4.484375l0.09375 2.125q1.9375 -2.4375 5.0625 -2.4375q5.359375 0 5.40625 6.046875l0 11.171875l-2.890625 0l0 -11.1875q-0.015625 -1.828125 -0.84375 -2.703125q-0.8125 -0.875 -2.546875 -0.875q-1.40625 0 -2.46875 0.75q-1.0625 0.75 -1.65625 1.96875l0 12.046875l-2.890625 0l0 -16.90625l2.734375 0zm14.234375 8.3125q0 -3.953125 1.828125 -6.28125q1.828125 -2.34375 4.84375 -2.34375q3.09375 0 4.828125 2.1875l0.140625 -1.875l2.640625 0l0 16.5q0 3.28125 -1.953125 5.171875q-1.9375 1.890625 -5.21875 1.890625q-1.828125 0 -3.578125 -0.78125q-1.75 -0.78125 -2.671875 -2.140625l1.5 -1.734375q1.859375 2.296875 4.546875 2.296875q2.109375 0 3.28125 -1.1875q1.1875 -1.1875 1.1875 -3.34375l0 -1.453125q-1.734375 2.0 -4.734375 2.0q-2.96875 0 -4.8125 -2.390625q-1.828125 -2.390625 -1.828125 -6.515625zm2.90625 0.328125q0 2.859375 1.171875 4.5q1.171875 1.625 3.28125 1.625q2.734375 0 4.015625 -2.484375l0 -7.71875q-1.328125 -2.421875 -3.984375 -2.421875q-2.109375 0 -3.296875 1.640625q-1.1875 1.640625 -1.1875 4.859375zm23.046875 2.15625q0 -1.640625 0.90625 -3.015625q0.921875 -1.375 3.5 -3.203125q-1.515625 -1.84375 -2.03125 -2.96875q-0.515625 -1.125 -0.515625 -2.234375q0 -2.59375 1.53125 -4.0625q1.53125 -1.46875 4.15625 -1.46875q2.34375 0 3.875 1.375q1.53125 1.359375 1.53125 3.4375q0 1.375 -0.703125 2.546875q-0.6875 1.15625 -2.421875 2.4375l-1.671875 1.234375l5.0625 6.046875q1.0625 -2.03125 1.0625 -4.515625l2.609375 0q0 3.984375 -1.921875 6.609375l3.25 3.890625l-3.46875 0l-1.515625 -1.796875q-1.15625 1.03125 -2.71875 1.578125q-1.546875 0.53125 -3.15625 0.53125q-3.328125 0 -5.34375 -1.765625q-2.015625 -1.765625 -2.015625 -4.65625zm7.359375 4.0625q2.296875 0 4.203125 -1.75l-5.546875 -6.640625l-0.515625 0.375q-2.609375 1.921875 -2.609375 3.953125q0 1.84375 1.1875 2.953125q1.203125 1.109375 3.28125 1.109375zm-2.609375 -15.578125q0 1.5 1.84375 3.75l1.84375 -1.296875q1.0625 -0.75 1.453125 -1.421875q0.390625 -0.6875 0.390625 -1.65625q0 -1.046875 -0.78125 -1.734375q-0.78125 -0.703125 -1.96875 -0.703125q-1.28125 0 -2.03125 0.875q-0.75 0.859375 -0.75 2.1875zm29.03125 10.453125l0.4375 3.0l0.640625 -2.703125l4.5 -15.875l2.53125 0l4.390625 15.875l0.625 2.75l0.484375 -3.0625l3.53125 -15.5625l3.015625 0l-5.515625 22.75l-2.734375 0l-4.6875 -16.578125l-0.359375 -1.734375l-0.359375 1.734375l-4.859375 16.578125l-2.734375 0l-5.5 -22.75l3.0 0l3.59375 15.578125zm29.5625 7.484375q-3.4375 0 -5.59375 -2.25q-2.15625 -2.265625 -2.15625 -6.046875l0 -0.53125q0 -2.515625 0.953125 -4.484375q0.96875 -1.984375 2.6875 -3.09375q1.734375 -1.125 3.75 -1.125q3.296875 0 5.125 2.171875q1.828125 2.171875 1.828125 6.21875l0 1.203125l-11.453125 0q0.0625 2.5 1.453125 4.046875q1.40625 1.53125 3.5625 1.53125q1.53125 0 2.59375 -0.625q1.0625 -0.625 1.859375 -1.65625l1.765625 1.375q-2.125 3.265625 -6.375 3.265625zm-0.359375 -15.15625q-1.75 0 -2.9375 1.28125q-1.1875 1.265625 -1.46875 3.5625l8.46875 0l0 -0.21875q-0.125 -2.203125 -1.1875 -3.40625q-1.0625 -1.21875 -2.875 -1.21875zm24.609375 6.578125q0 3.875 -1.78125 6.234375q-1.78125 2.34375 -4.78125 2.34375q-3.203125 0 -4.953125 -2.265625l-0.140625 1.953125l-2.65625 0l0 -24.0l2.890625 0l0 8.953125q1.75 -2.171875 4.828125 -2.171875q3.078125 0 4.828125 2.328125q1.765625 2.328125 1.765625 6.375l0 0.25zm-2.890625 -0.328125q0 -2.953125 -1.140625 -4.5625q-1.140625 -1.609375 -3.28125 -1.609375q-2.859375 0 -4.109375 2.65625l0 7.3125q1.328125 2.65625 4.140625 2.65625q2.078125 0 3.234375 -1.609375q1.15625 -1.609375 1.15625 -4.84375zm14.90625 8.59375l0 -22.75l6.421875 0q2.96875 0 5.25 1.3125q2.28125 1.3125 3.515625 3.734375q1.25 2.421875 1.265625 5.5625l0 1.453125q0 3.21875 -1.25 5.640625q-1.234375 2.421875 -3.546875 3.71875q-2.296875 1.296875 -5.359375 1.328125l-6.296875 0zm3.0 -20.28125l0 17.828125l3.15625 0q3.46875 0 5.390625 -2.15625q1.9375 -2.15625 1.9375 -6.140625l0 -1.328125q0 -3.875 -1.828125 -6.015625q-1.8125 -2.15625 -5.15625 -2.1875l-3.5 0zm24.546875 20.59375q-3.4375 0 -5.59375 -2.25q-2.15625 -2.265625 -2.15625 -6.046875l0 -0.53125q0 -2.515625 0.953125 -4.484375q0.96875 -1.984375 2.6875 -3.09375q1.734375 -1.125 3.75 -1.125q3.296875 0 5.125 2.171875q1.828125 2.171875 1.828125 6.21875l0 1.203125l-11.453125 0q0.0625 2.5 1.453125 4.046875q1.40625 1.53125 3.5625 1.53125q1.53125 0 2.59375 -0.625q1.0625 -0.625 1.859375 -1.65625l1.765625 1.375q-2.125 3.265625 -6.375 3.265625zm-0.359375 -15.15625q-1.75 0 -2.9375 1.28125q-1.1875 1.265625 -1.46875 3.5625l8.46875 0l0 -0.21875q-0.125 -2.203125 -1.1875 -3.40625q-1.0625 -1.21875 -2.875 -1.21875zm20.140625 10.359375q0 -1.171875 -0.890625 -1.8125q-0.875 -0.65625 -3.078125 -1.125q-2.1875 -0.46875 -3.484375 -1.125q-1.28125 -0.65625 -1.90625 -1.5625q-0.609375 -0.90625 -0.609375 -2.15625q0 -2.078125 1.75 -3.515625q1.765625 -1.4375 4.5 -1.4375q2.875 0 4.65625 1.484375q1.796875 1.484375 1.796875 3.796875l-2.90625 0q0 -1.1875 -1.015625 -2.046875q-1.0 -0.859375 -2.53125 -0.859375q-1.578125 0 -2.46875 0.6875q-0.890625 0.6875 -0.890625 1.796875q0 1.046875 0.828125 1.578125q0.828125 0.53125 2.984375 1.015625q2.171875 0.484375 3.515625 1.15625q1.34375 0.671875 1.984375 1.625q0.65625 0.9375 0.65625 2.296875q0 2.265625 -1.8125 3.640625q-1.8125 1.359375 -4.703125 1.359375q-2.03125 0 -3.59375 -0.71875q-1.5625 -0.71875 -2.453125 -2.0q-0.875 -1.296875 -0.875 -2.796875l2.890625 0q0.078125 1.453125 1.15625 2.3125q1.09375 0.84375 2.875 0.84375q1.640625 0 2.625 -0.65625q1.0 -0.671875 1.0 -1.78125zm9.796875 4.484375l-2.890625 0l0 -16.90625l2.890625 0l0 16.90625zm-3.125 -21.390625q0 -0.703125 0.421875 -1.1875q0.4375 -0.484375 1.28125 -0.484375q0.84375 0 1.28125 0.484375q0.4375 0.484375 0.4375 1.1875q0 0.703125 -0.4375 1.171875q-0.4375 0.46875 -1.28125 0.46875q-0.84375 0 -1.28125 -0.46875q-0.421875 -0.46875 -0.421875 -1.171875zm7.0625 12.796875q0 -3.953125 1.828125 -6.28125q1.828125 -2.34375 4.84375 -2.34375q3.09375 0 4.828125 2.1875l0.140625 -1.875l2.640625 0l0 16.5q0 3.28125 -1.953125 5.171875q-1.9375 1.890625 -5.21875 1.890625q-1.828125 0 -3.578125 -0.78125q-1.75 -0.78125 -2.671875 -2.140625l1.5 -1.734375q1.859375 2.296875 4.546875 2.296875q2.109375 0 3.28125 -1.1875q1.1875 -1.1875 1.1875 -3.34375l0 -1.453125q-1.734375 2.0 -4.734375 2.0q-2.96875 0 -4.8125 -2.390625q-1.828125 -2.390625 -1.828125 -6.515625zm2.90625 0.328125q0 2.859375 1.171875 4.5q1.171875 1.625 3.28125 1.625q2.734375 0 4.015625 -2.484375l0 -7.71875q-1.328125 -2.421875 -3.984375 -2.421875q-2.109375 0 -3.296875 1.640625q-1.1875 1.640625 -1.1875 4.859375zm18.46875 -8.640625l0.09375 2.125q1.9375 -2.4375 5.0625 -2.4375q5.359375 0 5.40625 6.046875l0 11.171875l-2.890625 0l0 -11.1875q-0.015625 -1.828125 -0.84375 -2.703125q-0.8125 -0.875 -2.546875 -0.875q-1.40625 0 -2.46875 0.75q-1.0625 0.75 -1.65625 1.96875l0 12.046875l-2.890625 0l0 -16.90625l2.734375 0z" fill-rule="nonzero"/><path fill="#ffcd1c" d="m344.25723 331.08136l0 0c0 32.3891 -28.604431 58.64566 -63.88977 58.64566q-31.944885 0 -63.88977 0q0 -29.322815 0 -58.64566l0 0c0 -32.3891 28.604416 -58.64566 63.88977 -58.64566l0 0c35.28534 0 63.88977 26.256561 63.88977 58.64566z" fill-rule="evenodd"/><path fill="#000000" fill-opacity="0.0" d="m224.10498 255.34383l549.2913 0l0 135.74803l-549.2913 0z" fill-rule="evenodd"/><path fill="#ffffff" d="m314.57373 332.97256q-0.5625 11.34375 -5.625 17.90625q-5.0625 6.5625 -13.546875 6.5625q-8.765625 0 -11.25 -7.875q-2.53125 3.984375 -5.796875 5.9375q-3.25 1.9375 -6.71875 1.9375q-6.65625 0 -10.078125 -5.4375q-3.421875 -5.4375 -2.53125 -15.046875q0.703125 -7.734375 3.53125 -13.796875q2.84375 -6.078125 7.3125 -9.546875q4.484375 -3.46875 9.40625 -3.46875q3.796875 0 6.796875 1.015625q3.0 1.0 6.75 3.953125l-2.4375 25.96875q-0.890625 10.828125 6.0 10.828125q5.296875 0 8.578125 -5.25q3.28125 -5.25 3.5625 -13.6875q0.890625 -18.234375 -6.78125 -27.796875q-7.65625 -9.5625 -23.3125 -9.5625q-9.421875 0 -16.734375 4.671875q-7.3125 4.65625 -11.53125 13.46875q-4.21875 8.8125 -4.734375 20.34375q-0.5625 11.625 2.8125 20.1875q3.375 8.546875 10.28125 13.0625q6.921875 4.53125 16.71875 4.53125q4.21875 0 8.453125 -1.03125q4.25 -1.03125 7.0625 -2.671875l1.734375 5.390625q-2.90625 1.828125 -7.71875 3.0q-4.796875 1.171875 -9.71875 1.171875q-11.71875 0 -20.15625 -5.28125q-8.4375 -5.265625 -12.640625 -15.1875q-4.1875 -9.90625 -3.625 -23.171875q0.5625 -12.890625 5.765625 -23.171875q5.203125 -10.296875 14.109375 -15.890625q8.90625 -5.609375 20.109375 -5.609375q11.671875 0 20.015625 5.25q8.34375 5.25 12.421875 15.140625q4.078125 9.890625 3.515625 23.15625zm-48.09375 3.984375q-0.65625 6.65625 1.234375 10.21875q1.90625 3.5625 6.03125 3.5625q2.8125 0 5.40625 -2.390625q2.609375 -2.390625 4.296875 -6.84375l0.046875 -0.421875l2.15625 -23.578125q-2.625 -1.359375 -5.625 -1.359375q-5.484375 0 -9.078125 5.578125q-3.578125 5.578125 -4.46875 15.234375z" fill-rule="nonzero"/></g></svg>