<svg id="logo" xmlns="http://www.w3.org/2000/svg" viewBox="0 0 1430.78 253.75"><defs><style>.cls-1{fill:#eec423;}.cls-2{fill:#fff;}.cls-3{fill:#333232;}</style></defs><g id="bulle"><path class="cls-1" d="M302.65,107.24C296.18,50,234.17,11.85,164.15,22.12,94.69,32.3,43.46,86.28,49,143.06L.61,199.72c-1,1.22-.73,1.91.73,1.82l73.59-4.62c25.75,25.76,67.55,39.25,112.71,32.63C257.65,219.26,309.12,164.52,302.65,107.24Z" transform="translate(0 0)"/></g><path class="cls-2" d="M250.33,124.34q-1,20.35-10,32.12t-24.15,11.76q-15.62,0-20.06-14.12a31.91,31.91,0,0,1-10.32,10.63,22.93,22.93,0,0,1-12,3.49q-11.88,0-18-9.75t-4.5-27a74.21,74.21,0,0,1,6.3-24.75q5.07-10.87,13-17.11T187.4,83.4a37.79,37.79,0,0,1,12.12,1.81,41.65,41.65,0,0,1,12,7.11l-4.35,46.56q-1.57,19.43,10.7,19.42,9.45,0,15.29-9.41t6.36-24.55q1.59-32.7-12.08-49.85t-41.6-17.15Q169,57.34,156,65.71T135.47,89.86Q128,105.67,127,126.35q-1,20.85,5,36.18T150.39,186q12.33,8.1,29.8,8.11a63.48,63.48,0,0,0,15.09-1.85,47,47,0,0,0,12.6-4.78l3.09,9.67a46.62,46.62,0,0,1-13.75,5.38,72.37,72.37,0,0,1-17.34,2.1q-20.9,0-35.94-9.46t-22.53-27.23q-7.48-17.79-6.47-41.57,1-23.11,10.24-41.57t25.16-28.5a65.75,65.75,0,0,1,35.86-10q20.82,0,35.7,9.41T244,82.82Q251.33,100.55,250.33,124.34Zm-85.76,7.14q-1.17,12,2.19,18.3a11.38,11.38,0,0,0,10.75,6.39q5,0,9.65-4.29t7.65-12.27l.09-.73,3.84-42.29a21.39,21.39,0,0,0-10-2.44q-9.78,0-16.18,10t-8,27.32Z" transform="translate(0 0)"/><path class="cls-1" d="M428.46,95.51H378L366.69,127H350.32l46-120.39h13.85L456.2,127H440Zm-45.64-13h40.92l-20.5-56.3Z" transform="translate(0 0)"/><path class="cls-1" d="M524.37,118.16q-8.93,10.5-26.17,10.5-14.31,0-21.78-8.3t-7.57-24.63V37.56h15.3v57.8q0,20.36,16.54,20.35,17.52,0,23.31-13.09V37.56h15.3V127H524.75Z" transform="translate(0 0)"/><path class="cls-1" d="M558.77,81.53q0-20.6,9.76-33.1A31,31,0,0,1,594.08,35.9q15.7,0,24.89,10.78V0h15.3V127H620.21l-.77-9.59q-9.16,11.24-25.54,11.24-15.55,0-25.35-12.73t-9.8-33.24Zm15.31,1.74q0,15.21,6.28,23.81t17.36,8.61q14.55,0,21.25-13.09V61.52q-6.84-12.65-21.09-12.65-11.24,0-17.52,8.68T574.08,83.27Z" transform="translate(0 0)"/><path class="cls-1" d="M701.25,51.27a45.23,45.23,0,0,0-7.53-.58q-15,0-20.42,12.81V127H658V37.56h14.89l.24,10.34q7.5-12,21.36-12a15.63,15.63,0,0,1,6.78,1.16Z" transform="translate(0 0)"/><path class="cls-1" d="M750.86,128.66q-18.2,0-29.6-11.94t-11.38-32V82A53.7,53.7,0,0,1,715,58.17,39.66,39.66,0,0,1,729.13,41.8a35.71,35.71,0,0,1,19.79-5.91q17.45,0,27.13,11.5t9.67,32.9v6.37H725.15q.32,13.23,7.69,21.37a24.27,24.27,0,0,0,18.82,8.15,26.68,26.68,0,0,0,13.72-3.31,34.63,34.63,0,0,0,9.84-8.76l9.34,7.27Q773.36,128.68,750.86,128.66ZM749,48.46a20.35,20.35,0,0,0-15.54,6.74q-6.27,6.73-7.77,18.89h44.81V73q-.66-11.65-6.28-18.06T749,48.46Z" transform="translate(0 0)"/><path class="cls-1" d="M831.65,104.6l20.84-67h16.37l-36,103.26q-8.37,22.32-26.54,22.32l-2.9-.25-5.71-1.07v-12.4l4.13.33q7.78,0,12.12-3.14t7.15-11.5l3.4-9.09L792.61,37.56h16.71Z" transform="translate(0 0)"/><path class="cls-3" d="M1011.76,114.86a38.28,38.28,0,0,1-17.84,13.67q-11.46,4.51-26.64,4.55a51.74,51.74,0,0,1-27.34-7.24,48,48,0,0,1-18.43-20.51Q915,92,914.81,74.49V63.55q0-28.42,13.26-44.06T965.34,3.86q19.7,0,31.7,10.06t14.69,28.55H995.14q-4.65-25-29.75-25.06-16.68,0-25.27,11.72t-8.68,33.93V73.35q0,21.18,9.65,33.67t26.17,12.5a57.77,57.77,0,0,0,16.33-2.07,25.26,25.26,0,0,0,11.57-7V82.32H966.05V68.72h45.61Z" transform="translate(0 0)"/><path class="cls-3" d="M1082.07,52.22a49.27,49.27,0,0,0-7.86-.6q-15.72,0-21.34,13.39v66.34h-16V37.91h15.54l.27,10.8q7.85-12.52,22.28-12.53a16.22,16.22,0,0,1,7.08,1.22Z" transform="translate(0 0)"/><path class="cls-3" d="M1154.46,122.11q-9.35,11-27.34,11-15,0-22.77-8.68t-7.9-25.73V37.91h16V98.29q0,21.25,17.28,21.25,18.3,0,24.35-13.67v-68h16v93.44h-15.2Z" transform="translate(0 0)"/><path class="cls-3" d="M1209.4,37.91l.51,11.75q10.71-13.48,28-13.48,29.63,0,29.89,33.44v61.75h-16V69.5q-.08-10.09-4.61-14.94t-14.13-4.82a23,23,0,0,0-13.67,4.15,28.07,28.07,0,0,0-9.16,10.88v66.58h-16V37.91Z" transform="translate(0 0)"/><path class="cls-3" d="M1330.67,133.08q-19,0-30.92-12.48t-11.92-33.39V84.28a56.09,56.09,0,0,1,5.31-24.84A41.58,41.58,0,0,1,1308,42.33a37.45,37.45,0,0,1,20.69-6.17q18.21,0,28.32,12t10.11,34.38V89.2h-63.31q.35,13.81,8,22.33a25.37,25.37,0,0,0,19.7,8.51,27.86,27.86,0,0,0,14.34-3.46,36.27,36.27,0,0,0,10.28-9.15l9.76,7.6Q1354.17,133.09,1330.67,133.08Zm-2-83.79a21.33,21.33,0,0,0-16.25,7q-6.56,7.05-8.11,19.74h46.81V74.9q-.69-12.18-6.56-18.87t-15.89-6.74Z" transform="translate(0 0)"/><path class="cls-3" d="M1430.78,52.22a49.06,49.06,0,0,0-7.85-.6q-15.73,0-21.34,13.39v66.34h-16V37.91h15.55l.26,10.8q7.86-12.52,22.28-12.53a16.19,16.19,0,0,1,7.08,1.22Z" transform="translate(0 0)"/><path class="cls-3" d="M370.54,168.69l20.83,52,20.84-52h10.9v63.74h-8.4V207.65l.79-26.79-20.93,51.62h-6.44L367.25,181l.83,26.66v24.83h-8.4V168.73Z" transform="translate(0 0)"/><path class="cls-3" d="M465.93,232.43a16.53,16.53,0,0,1-1.14-5,18.12,18.12,0,0,1-13.45,5.86,16.72,16.72,0,0,1-11.49-4,12.81,12.81,0,0,1-4.49-10A13.41,13.41,0,0,1,441,207.8q5.64-4.1,15.77-4.09h7.89V200a9.13,9.13,0,0,0-2.54-6.76c-1.7-1.67-4.19-2.51-7.49-2.51a11.87,11.87,0,0,0-7.27,2.18,6.46,6.46,0,0,0-2.93,5.3h-8.14a11.14,11.14,0,0,1,2.52-6.85,17.09,17.09,0,0,1,6.82-5.22,22.77,22.77,0,0,1,9.49-1.93q8.17,0,12.82,4.09t4.82,11.3v21.8a26.56,26.56,0,0,0,1.67,10.37v.71Zm-13.45-6.18a14,14,0,0,0,7.17-2,11.88,11.88,0,0,0,5-5.12v-9.72h-6.35q-14.88,0-14.88,8.72a7.36,7.36,0,0,0,2.54,6,9.8,9.8,0,0,0,6.58,2.14Z" transform="translate(0 0)"/><path class="cls-3" d="M508.34,192.33a24,24,0,0,0-4-.31q-8,0-10.81,6.79v33.62h-8.07V185.06h7.88l.14,5.47a12.59,12.59,0,0,1,11.29-6.34,8.18,8.18,0,0,1,3.59.61Z" transform="translate(0 0)"/><path class="cls-3" d="M529,210.49l-5.08,5.3v16.64h-8.07V165.19h8.07v40.67l4.33-5.21L543,185.06h9.86l-18.43,19.78,20.62,27.59h-9.54Z" transform="translate(0 0)"/><path class="cls-3" d="M580,233.3q-9.63,0-15.67-6.32t-6-16.92v-1.51A28.24,28.24,0,0,1,561,196a21,21,0,0,1,7.52-8.66A18.81,18.81,0,0,1,579,184.2q9.24,0,14.35,6.07t5.12,17.43v3.37H566.39q.18,7,4.09,11.32a12.85,12.85,0,0,0,10,4.3,14.1,14.1,0,0,0,7.27-1.75A18.34,18.34,0,0,0,593,220.3l4.94,3.86Q591.92,233.3,580,233.3Zm-1-42.46a10.75,10.75,0,0,0-8.23,3.59q-3.32,3.58-4.12,10h23.7v-.62q-.35-6.17-3.33-9.56A10.12,10.12,0,0,0,579,190.84Z" transform="translate(0 0)"/><path class="cls-3" d="M618.83,173.58v11.48h8.85v6.27h-8.85v29.41A6.6,6.6,0,0,0,620,225c.79.95,2.13,1.42,4,1.42a19.39,19.39,0,0,0,3.86-.53v6.53a23.73,23.73,0,0,1-6.22.9q-5.43,0-8.18-3.29t-2.76-9.32V191.32h-8.63v-6.27h8.63V173.58Z" transform="translate(0 0)"/><path class="cls-3" d="M637.18,172.5a4.85,4.85,0,0,1,1.2-3.33,4.52,4.52,0,0,1,3.58-1.35,4.57,4.57,0,0,1,3.59,1.35,4.79,4.79,0,0,1,1.22,3.33,4.62,4.62,0,0,1-1.22,3.28A4.68,4.68,0,0,1,642,177.1a4.59,4.59,0,0,1-3.58-1.32A4.68,4.68,0,0,1,637.18,172.5Zm8.76,59.93h-8.07V185.06h8.07Z" transform="translate(0 0)"/><path class="cls-3" d="M666.56,185.06l.26,5.95A17.25,17.25,0,0,1,681,184.19q15,0,15.14,16.93v31.31h-8.07V201.05c0-3.41-.78-5.94-2.34-7.57s-3.91-2.46-7.17-2.46a11.61,11.61,0,0,0-6.91,2.11,14.43,14.43,0,0,0-4.65,5.51v33.75h-8.06V185.06Z" transform="translate(0 0)"/><path class="cls-3" d="M706.43,208.35q0-11.07,5.12-17.62a16.37,16.37,0,0,1,13.58-6.54q8.65,0,13.52,6.12l.39-5.25h7.41v46.23q0,9.19-5.45,14.49t-14.65,5.3a24.44,24.44,0,0,1-10-2.19,17.23,17.23,0,0,1-7.48-6L713,238q5.21,6.43,12.74,6.43,5.91,0,9.22-3.32t3.28-9.37V227.7q-4.85,5.6-13.26,5.6a16.18,16.18,0,0,1-13.45-6.7Q706.44,219.91,706.43,208.35Zm8.15.9q0,8,3.28,12.55a10.67,10.67,0,0,0,9.2,4.68q7.63,0,11.24-7V197.84q-3.72-6.78-11.16-6.79a10.81,10.81,0,0,0-9.24,4.6q-3.31,4.6-3.32,13.62Z" transform="translate(0 0)"/><path class="cls-3" d="M782.29,219.39a14.37,14.37,0,0,1,2.47-8.11c1.63-2.46,4.77-5.34,9.39-8.61a40.41,40.41,0,0,1-5.46-8,14.27,14.27,0,0,1-1.39-6q0-7,4.12-10.93t11.2-4a15.09,15.09,0,0,1,10.43,3.68,11.89,11.89,0,0,1,4.12,9.27,13.17,13.17,0,0,1-1.86,6.84,24.55,24.55,0,0,1-6.55,6.58l-4.51,3.29,13.62,16.28a25.94,25.94,0,0,0,2.86-12.16h7q0,10.72-5.17,17.79l8.74,10.48H822L817.91,231a21.1,21.1,0,0,1-7.29,4.23,25.76,25.76,0,0,1-8.52,1.45q-9,0-14.38-4.75A15.8,15.8,0,0,1,782.29,219.39Zm19.81,10.94a16.4,16.4,0,0,0,11.31-4.71l-14.92-17.89-1.39,1q-7,5.16-7,10.63a10.32,10.32,0,0,0,3.22,7.95q3.23,3,8.81,3Zm-7-41.93q0,4,5,10.1l5-3.5a13.37,13.37,0,0,0,3.91-3.84,8.92,8.92,0,0,0,1.05-4.44,6,6,0,0,0-2.11-4.69,7.64,7.64,0,0,0-5.29-1.87,6.89,6.89,0,0,0-5.47,2.34,8.69,8.69,0,0,0-2,5.9Z" transform="translate(0 0)"/><path class="cls-3" d="M873.21,216.53l1.18,8.08,1.72-7.28,12.11-42.72H895l11.81,42.72,1.73,7.41,1.31-8.24,9.47-41.89h8.12l-14.85,61.23h-7.36l-12.61-44.62-1-4.67-1,4.67-13.08,44.62h-7.35l-14.81-61.23h8.08Z" transform="translate(0 0)"/><path class="cls-3" d="M952.77,236.68q-9.24,0-15-6.08t-5.8-16.25V212.9a27.14,27.14,0,0,1,2.58-12.06,20.31,20.31,0,0,1,7.23-8.33,18.15,18.15,0,0,1,10.08-3q8.87,0,13.78,5.84t4.92,16.74v3.24H939.68q.18,6.72,3.94,10.86a12.33,12.33,0,0,0,9.57,4.15,13.57,13.57,0,0,0,7-1.68,17.66,17.66,0,0,0,5-4.46l4.75,3.7Q964.21,236.68,952.77,236.68Zm-1-40.79a10.36,10.36,0,0,0-7.91,3.44q-3.2,3.45-3.95,9.61h22.79v-.59q-.35-5.92-3.2-9.19A9.75,9.75,0,0,0,951.81,195.89Z" transform="translate(0 0)"/><path class="cls-3" d="M1018,213.6q0,10.41-4.79,16.75a15.37,15.37,0,0,1-12.92,6.33q-8.61,0-13.32-6.1l-.38,5.26h-7.16V171.25h7.75v24.11q4.71-5.84,13-5.84a15.37,15.37,0,0,1,13,6.27Q1018,202,1018,212.94Zm-7.75-.87q0-7.93-3.08-12.28a10.16,10.16,0,0,0-8.83-4.3q-7.7,0-11,7.14V223q3.55,7.16,11.14,7.15a10.12,10.12,0,0,0,8.7-4.31q3.08-4.41,3.09-13.11Z" transform="translate(0 0)"/><path class="cls-3" d="M1050.38,235.84V174.61h17.28a27.77,27.77,0,0,1,14.12,3.53,23.93,23.93,0,0,1,9.48,10.05,32.92,32.92,0,0,1,3.38,15v3.91a32.69,32.69,0,0,1-3.35,15.17,23.53,23.53,0,0,1-9.54,10,29.57,29.57,0,0,1-14.44,3.57Zm8.07-54.63v48h8.5q9.35,0,14.52-5.8t5.17-16.55v-3.57q0-10.44-4.9-16.23t-13.9-5.87Z" transform="translate(0 0)"/><path class="cls-3" d="M1124.51,236.68q-9.26,0-15-6.08t-5.8-16.25V212.9a27.28,27.28,0,0,1,2.58-12.06,20.2,20.2,0,0,1,7.24-8.33,18.1,18.1,0,0,1,10.07-3q8.88,0,13.78,5.84t4.91,16.74v3.24h-30.82q.16,6.72,3.93,10.86a12.33,12.33,0,0,0,9.56,4.15,13.74,13.74,0,0,0,7-1.68,17.64,17.64,0,0,0,5-4.46l4.76,3.7Q1136,236.68,1124.51,236.68Zm-1-40.79a10.39,10.39,0,0,0-7.91,3.44q-3.2,3.45-4,9.61h22.79v-.59q-.33-5.92-3.19-9.19A9.78,9.78,0,0,0,1123.55,195.89Z" transform="translate(0 0)"/><path class="cls-3" d="M1177.75,223.77a5.74,5.74,0,0,0-2.38-4.9q-2.37-1.73-8.28-3a39.67,39.67,0,0,1-9.38-3,13.5,13.5,0,0,1-5.17-4.21,10.11,10.11,0,0,1-1.66-5.8,11.79,11.79,0,0,1,4.73-9.47q4.73-3.87,12.06-3.87c5.16,0,9.35,1.33,12.54,4A12.68,12.68,0,0,1,1185,203.7h-7.83a7,7,0,0,0-2.71-5.5,10.13,10.13,0,0,0-6.83-2.32,10.64,10.64,0,0,0-6.65,1.85,5.83,5.83,0,0,0-2.4,4.83,4.71,4.71,0,0,0,2.23,4.25q2.22,1.44,8.06,2.74a41.54,41.54,0,0,1,9.47,3.11,13.69,13.69,0,0,1,5.36,4.35,10.75,10.75,0,0,1,1.73,6.2,11.65,11.65,0,0,1-4.88,9.78q-4.87,3.69-12.66,3.68a23.16,23.16,0,0,1-9.67-1.93,15.84,15.84,0,0,1-6.58-5.41,13,13,0,0,1-2.38-7.5h7.76a8.07,8.07,0,0,0,3.13,6.2,12.21,12.21,0,0,0,7.75,2.29,12.52,12.52,0,0,0,7.09-1.79A5.49,5.49,0,0,0,1177.75,223.77Z" transform="translate(0 0)"/><path class="cls-3" d="M1195.71,178.27a4.71,4.71,0,0,1,1.15-3.2,4.35,4.35,0,0,1,3.45-1.3,4.41,4.41,0,0,1,3.44,1.3,4.6,4.6,0,0,1,1.17,3.2,4.43,4.43,0,0,1-1.17,3.15,4.54,4.54,0,0,1-3.44,1.27,4.18,4.18,0,0,1-4.6-4.42Zm8.41,57.57h-7.75V190.33h7.75Z" transform="translate(0 0)"/><path class="cls-3" d="M1214.71,212.71q0-10.64,4.92-16.92a15.73,15.73,0,0,1,13-6.29q8.32,0,13,5.88l.38-5h7.1v44.42q0,8.82-5.24,13.91t-14.06,5.09a23.39,23.39,0,0,1-9.63-2.1,16.62,16.62,0,0,1-7.19-5.76l4-4.67q5,6.18,12.24,6.18,5.68,0,8.85-3.2t3.18-9v-3.91q-4.68,5.39-12.75,5.39a15.5,15.5,0,0,1-12.91-6.44Q1214.71,223.8,1214.71,212.71Zm7.82.86q0,7.69,3.16,12.06a10.24,10.24,0,0,0,8.83,4.4,11.42,11.42,0,0,0,10.81-6.69V202.61q-3.57-6.51-10.72-6.51a10.31,10.31,0,0,0-8.88,4.41q-3.18,4.43-3.2,13.09Z" transform="translate(0 0)"/><path class="cls-3" d="M1272.24,190.33l.25,5.72a16.63,16.63,0,0,1,13.63-6.55q14.43,0,14.55,16.27v30.07h-7.75V205.7q0-4.92-2.25-7.28c-1.47-1.57-3.76-2.36-6.89-2.36a11.17,11.17,0,0,0-6.64,2,13.72,13.72,0,0,0-4.45,5.34v32.43h-7.75V190.33Z" transform="translate(0 0)"/></svg>