<svg id="logo" xmlns="http://www.w3.org/2000/svg" viewBox="0 0 1830.47 315.23"><defs><style>.cls-1{fill:#eec423;}.cls-2{fill:#fff;}.cls-3{fill:#333232;}</style></defs><g id="bulle"><path class="cls-1" d="M425.49,165.93C416.65,87.67,331.92,35.59,236.25,49.62,141.34,63.54,71.33,137.29,78.87,214.88L12.79,292.3c-1.42,1.67-1,2.61,1,2.49l100.55-6.32c35.18,35.2,92.3,53.63,154,44.58C364,319,434.34,244.2,425.49,165.93Z" transform="translate(-11.94 -20.2)"/></g><path class="cls-2" d="M354,189.3q-1.38,27.8-13.71,43.88t-33,16.08q-21.34,0-27.41-19.3-6.17,9.76-14.1,14.53a31.42,31.42,0,0,1-16.39,4.77q-16.22,0-24.56-13.33t-6.16-36.87a101.38,101.38,0,0,1,8.62-33.83q6.91-14.86,17.82-23.37t22.9-8.5a51.56,51.56,0,0,1,16.56,2.47q7.31,2.47,16.44,9.71l-5.94,63.63q-2.16,26.54,14.62,26.53,12.91,0,20.9-12.86t8.68-33.54q2.17-44.69-16.5-68.12T265.93,97.75q-23,0-40.77,11.43t-28.1,33q-10.27,21.6-11.53,49.86-1.38,28.49,6.85,49.44t25.07,32.05q16.85,11.08,40.71,11.09a86.77,86.77,0,0,0,20.62-2.53A64.39,64.39,0,0,0,296,275.56l4.22,13.21q-7.08,4.49-18.78,7.35a98.91,98.91,0,0,1-23.7,2.87q-28.56,0-49.11-12.92t-30.78-37.21q-10.23-24.3-8.85-56.8,1.36-31.59,14-56.81t34.38-38.93q21.71-13.72,49-13.73,28.44,0,48.77,12.86t30.26,37.11Q355.37,156.79,354,189.3Zm-117.18,9.76q-1.6,16.32,3,25t14.68,8.73q6.86,0,13.19-5.86t10.45-16.77l.12-1,5.25-57.78a29.26,29.26,0,0,0-13.71-3.33q-13.35,0-22.1,13.67T236.81,199.06Z" transform="translate(-11.94 -20.2)"/><path class="cls-1" d="M558.4,144.28H492.87L478.15,185.2H456.88L516.61,28.8h18l59.83,156.4H573.33Zm-59.3-16.87h53.17L525.63,54.26Z" transform="translate(-11.94 -20.2)"/><path class="cls-1" d="M683,173.71Q671.4,187.35,649,187.35q-18.59,0-28.3-10.79t-9.83-32V69h19.87v75.09q0,26.43,21.49,26.43,22.77,0,30.29-17V69h19.87V185.2h-18.9Z" transform="translate(-11.94 -20.2)"/><path class="cls-1" d="M727.69,126.12q0-26.75,12.68-43t33.19-16.28q20.41,0,32.34,14V20.2h19.87v165H807.51l-1-12.46q-11.92,14.61-33.19,14.61-20.21,0-32.93-16.54t-12.73-43.19Zm19.88,2.26q0,19.76,8.16,30.93t22.56,11.18q18.9,0,27.61-17V100.12Q797,83.7,778.5,83.69q-14.61,0-22.77,11.28T747.57,128.38Z" transform="translate(-11.94 -20.2)"/><path class="cls-1" d="M912.78,86.8a59.74,59.74,0,0,0-9.77-.75q-19.56,0-26.54,16.65v82.5H856.6V69h19.34l.32,13.43Q886,66.83,904,66.82c3.87,0,6.81.51,8.81,1.51Z" transform="translate(-11.94 -20.2)"/><path class="cls-1" d="M977.24,187.35q-23.64,0-38.46-15.52T924,130.31v-3.65q0-17.3,6.61-30.89A51.58,51.58,0,0,1,949,74.5a46.53,46.53,0,0,1,25.72-7.68q22.66,0,35.24,14.94t12.57,42.75v8.27H943.83q.42,17.19,10,27.77t24.44,10.58q10.53,0,17.83-4.3a44.76,44.76,0,0,0,12.78-11.38l12.14,9.45Q1006.45,187.36,977.24,187.35Zm-2.48-104.2a26.49,26.49,0,0,0-20.19,8.76q-8.16,8.76-10.1,24.54h58.22V115q-.86-15.15-8.16-23.47T974.76,83.15Z" transform="translate(-11.94 -20.2)"/><path class="cls-1" d="M1082.19,156.09,1109.26,69h21.27L1083.8,203.14q-10.86,29-34.48,29l-3.76-.33-7.42-1.39V214.31l5.37.43q10.11,0,15.74-4.08t9.29-14.93l4.41-11.82L1031.48,69h21.7Z" transform="translate(-11.94 -20.2)"/><path class="cls-3" d="M1321.31,164.69q-7.95,11.38-22.19,17T1266,187.35q-19.12,0-34-9a59.71,59.71,0,0,1-22.93-25.51q-8.11-16.55-8.33-38.35V100.88q0-35.34,16.49-54.79t46.35-19.44q24.5,0,39.43,12.51t18.26,35.51h-20.63q-5.79-31.15-37-31.16-20.73,0-31.42,14.57t-10.8,42.2v12.79q0,26.34,12,41.88t32.55,15.54a72.14,72.14,0,0,0,20.31-2.57,31.4,31.4,0,0,0,14.39-8.69v-35h-36.2V107.32h56.72Z" transform="translate(-11.94 -20.2)"/><path class="cls-3" d="M1408.75,86.8a59.77,59.77,0,0,0-9.78-.75q-19.54,0-26.53,16.65v82.5h-19.87V69h19.33l.33,13.43q9.76-15.57,27.71-15.58c3.87,0,6.8.51,8.81,1.51Z" transform="translate(-11.94 -20.2)"/><path class="cls-3" d="M1498.77,173.71q-11.61,13.64-34,13.64-18.59,0-28.31-10.79t-9.83-32V69h19.87v75.09q0,26.43,21.49,26.43,22.77,0,30.29-17V69h19.87V185.2h-18.9Z" transform="translate(-11.94 -20.2)"/><path class="cls-3" d="M1567.09,69l.64,14.61q13.32-16.76,34.81-16.76,36.84,0,37.17,41.58v76.8h-19.88V108.29q-.11-12.57-5.74-18.58t-17.57-6a28.67,28.67,0,0,0-17,5.16,34.91,34.91,0,0,0-11.39,13.53V185.2h-19.87V69Z" transform="translate(-11.94 -20.2)"/><path class="cls-3" d="M1717.91,187.35q-23.64,0-38.46-15.52t-14.82-41.52v-3.65q0-17.3,6.6-30.89a51.73,51.73,0,0,1,18.48-21.27,46.53,46.53,0,0,1,25.73-7.68q22.66,0,35.23,14.94t12.57,42.75v8.27H1684.5q.43,17.19,10,27.77T1719,171.13q10.53,0,17.84-4.3a44.9,44.9,0,0,0,12.78-11.38l12.14,9.45Q1747.13,187.36,1717.91,187.35Zm-2.47-104.2a26.51,26.51,0,0,0-20.2,8.76q-8.16,8.76-10.09,24.54h58.22V115q-.87-15.15-8.17-23.47T1715.44,83.15Z" transform="translate(-11.94 -20.2)"/><path class="cls-3" d="M1842.41,86.8a59.74,59.74,0,0,0-9.77-.75q-19.56,0-26.54,16.65v82.5h-19.87V69h19.34l.32,13.43q9.77-15.57,27.71-15.58c3.87,0,6.81.51,8.81,1.51Z" transform="translate(-11.94 -20.2)"/><path class="cls-3" d="M478.82,243.54l23.24,58,23.24-58h12.16v71.1h-9.37V287l.88-29.88-23.34,57.57h-7.18l-23.29-57.43.92,29.74v27.69h-9.37v-71.1Z" transform="translate(-11.94 -20.2)"/><path class="cls-3" d="M585.22,314.64a18.51,18.51,0,0,1-1.27-5.57,20.17,20.17,0,0,1-15,6.54q-7.81,0-12.82-4.42a14.28,14.28,0,0,1-5-11.2q0-8.25,6.28-12.82T575,282.6h8.79v-4.15a10.14,10.14,0,0,0-2.83-7.54q-2.84-2.81-8.35-2.81a13.24,13.24,0,0,0-8.11,2.44,7.2,7.2,0,0,0-3.27,5.91h-9.08a12.43,12.43,0,0,1,2.81-7.64,19.12,19.12,0,0,1,7.61-5.83,25.53,25.53,0,0,1,10.58-2.15q9.12,0,14.3,4.56T592.83,278v24.31q0,7.28,1.86,11.57v.79Zm-15-6.89a15.81,15.81,0,0,0,8-2.2,13.23,13.23,0,0,0,5.52-5.71V289h-7.08q-16.61,0-16.6,9.72a8.22,8.22,0,0,0,2.83,6.64A10.91,10.91,0,0,0,570.23,307.75Z" transform="translate(-11.94 -20.2)"/><path class="cls-3" d="M632.53,269.91a26.87,26.87,0,0,0-4.44-.34q-8.9,0-12.06,7.57v37.5h-9V261.8h8.79l.15,6.11a14.06,14.06,0,0,1,12.6-7.08,9.32,9.32,0,0,1,4,.68Z" transform="translate(-11.94 -20.2)"/><path class="cls-3" d="M655.58,290.17l-5.67,5.91v18.56h-9v-75h9V285l4.84-5.81L671.2,261.8h11l-20.56,22.07,23,30.77H674Z" transform="translate(-11.94 -20.2)"/><path class="cls-3" d="M712.46,315.61q-10.74,0-17.48-7.05t-6.74-18.87V288a31.54,31.54,0,0,1,3-14,23.45,23.45,0,0,1,8.39-9.67,21.12,21.12,0,0,1,11.7-3.49q10.3,0,16,6.78t5.72,19.44v3.76H697.28q.19,7.81,4.56,12.62A14.34,14.34,0,0,0,713,308.24a15.79,15.79,0,0,0,8.11-1.95,20.52,20.52,0,0,0,5.81-5.18l5.51,4.3Q725.75,315.61,712.46,315.61Zm-1.12-47.36a12,12,0,0,0-9.18,4q-3.7,4-4.59,11.16H724v-.69q-.39-6.88-3.71-10.67A11.34,11.34,0,0,0,711.34,268.25Z" transform="translate(-11.94 -20.2)"/><path class="cls-3" d="M755.77,249V261.8h9.87v7h-9.87v32.8a7.34,7.34,0,0,0,1.32,4.77q1.32,1.59,4.49,1.59a22,22,0,0,0,4.3-.59v7.28a26.25,26.25,0,0,1-6.93,1q-6.06,0-9.13-3.66t-3.08-10.4V268.79h-9.62v-7h9.62V249Z" transform="translate(-11.94 -20.2)"/><path class="cls-3" d="M776.23,247.79a5.42,5.42,0,0,1,1.34-3.71,5.06,5.06,0,0,1,4-1.51,5.12,5.12,0,0,1,4,1.51,5.34,5.34,0,0,1,1.36,3.71,5.14,5.14,0,0,1-1.36,3.66,5.21,5.21,0,0,1-4,1.47,5.14,5.14,0,0,1-4-1.47A5.21,5.21,0,0,1,776.23,247.79ZM786,314.64h-9V261.8h9Z" transform="translate(-11.94 -20.2)"/><path class="cls-3" d="M809,261.8l.29,6.64a19.26,19.26,0,0,1,15.82-7.61q16.74,0,16.89,18.89v34.92h-9v-35q0-5.71-2.61-8.45c-1.71-1.82-4.37-2.74-8-2.74a13,13,0,0,0-7.71,2.35,16,16,0,0,0-5.18,6.15v37.65h-9V261.8Z" transform="translate(-11.94 -20.2)"/><path class="cls-3" d="M853.48,287.78q0-12.34,5.71-19.65a18.26,18.26,0,0,1,15.14-7.3q9.66,0,15.08,6.83l.44-5.86h8.26v51.57q0,10.25-6.08,16.16t-16.34,5.91A27.33,27.33,0,0,1,864.51,333a19.31,19.31,0,0,1-8.35-6.69l4.69-5.42q5.8,7.17,14.21,7.17,6.59,0,10.28-3.71T889,313.9v-4.54q-5.41,6.25-14.79,6.25a18.06,18.06,0,0,1-15-7.47Q853.48,300.67,853.48,287.78Zm9.08,1q0,8.93,3.66,14A11.89,11.89,0,0,0,876.48,308q8.53,0,12.54-7.77V276.06q-4.14-7.56-12.45-7.57a12,12,0,0,0-10.3,5.13Q862.57,278.75,862.56,288.81Z" transform="translate(-11.94 -20.2)"/><path class="cls-3" d="M934.58,295.54a16.65,16.65,0,0,1,2.86-9.42q2.85-4.29,10.91-10a47.09,47.09,0,0,1-6.35-9.28,16.69,16.69,0,0,1-1.61-7q0-8.1,4.79-12.69t13-4.59a17.48,17.48,0,0,1,12.11,4.27,13.82,13.82,0,0,1,4.79,10.76,15.29,15.29,0,0,1-2.17,7.94,28.28,28.28,0,0,1-7.6,7.64L960.07,277l15.82,18.9a30.07,30.07,0,0,0,3.32-14.12h8.15q0,12.45-6,20.66l10.15,12.16H980.67L975.94,309a24.68,24.68,0,0,1-8.47,4.91,30.09,30.09,0,0,1-9.89,1.68q-10.4,0-16.7-5.51T934.58,295.54Zm23,12.7a19,19,0,0,0,13.13-5.47L953.38,282l-1.61,1.17q-8.16,6-8.16,12.35a12,12,0,0,0,3.74,9.23Q951.09,308.24,957.58,308.24Zm-8.16-48.68q0,4.68,5.77,11.72l5.76-4.06a15.48,15.48,0,0,0,4.54-4.46,10.26,10.26,0,0,0,1.22-5.16,7,7,0,0,0-2.44-5.44,8.91,8.91,0,0,0-6.15-2.17,8,8,0,0,0-6.35,2.71A10.11,10.11,0,0,0,949.42,259.56Z" transform="translate(-11.94 -20.2)"/><path class="cls-3" d="M1040.15,292.22l1.36,9.38,2-8.45,14.06-49.61h7.91l13.72,49.61,2,8.6,1.52-9.57,11-48.64h9.43l-17.24,71.1h-8.55l-14.64-51.81-1.13-5.42-1.12,5.42-15.19,51.81h-8.54l-17.19-71.1h9.38Z" transform="translate(-11.94 -20.2)"/><path class="cls-3" d="M1132.53,315.61q-10.74,0-17.48-7.05t-6.74-18.87V288a31.67,31.67,0,0,1,3-14,23.54,23.54,0,0,1,8.4-9.67,21.12,21.12,0,0,1,11.7-3.49q10.3,0,16,6.78t5.72,19.44v3.76h-35.8q.2,7.81,4.57,12.62a14.34,14.34,0,0,0,11.11,4.81,15.72,15.72,0,0,0,8.1-1.95,20.39,20.39,0,0,0,5.81-5.18l5.52,4.3Q1145.8,315.61,1132.53,315.61Zm-1.12-47.36a12,12,0,0,0-9.18,4q-3.72,4-4.59,11.16h26.46v-.69q-.39-6.88-3.71-10.67A11.34,11.34,0,0,0,1131.41,268.25Z" transform="translate(-11.94 -20.2)"/><path class="cls-3" d="M1208.31,288.81q0,12.1-5.56,19.45a17.81,17.81,0,0,1-15,7.35q-10,0-15.47-7.08l-.44,6.11h-8.31v-75h9v28q5.46-6.78,15.09-6.78t15.11,7.27q5.49,7.27,5.49,19.92Zm-9-1q0-9.22-3.57-14.26a11.79,11.79,0,0,0-10.25-5q-8.94,0-12.84,8.3v22.86q4.14,8.3,12.94,8.3a11.72,11.72,0,0,0,10.1-5Q1199.27,297.88,1199.28,287.78Z" transform="translate(-11.94 -20.2)"/><path class="cls-3" d="M1245.86,314.64v-71.1h20.07a32.33,32.33,0,0,1,16.4,4.1,27.79,27.79,0,0,1,11,11.67,38.2,38.2,0,0,1,3.93,17.39v4.54a38.06,38.06,0,0,1-3.89,17.62,27.3,27.3,0,0,1-11.08,11.63,34.42,34.42,0,0,1-16.77,4.15Zm9.38-63.43V307h9.86q10.85,0,16.87-6.74t6-19.21v-4.15q0-12.12-5.69-18.84t-16.14-6.82Z" transform="translate(-11.94 -20.2)"/><path class="cls-3" d="M1331.94,315.61q-10.74,0-17.48-7.05t-6.73-18.87V288a31.67,31.67,0,0,1,3-14,23.4,23.4,0,0,1,8.4-9.67,21.06,21.06,0,0,1,11.69-3.49q10.31,0,16,6.78t5.71,19.44v3.76h-35.79q.2,7.81,4.56,12.62a14.35,14.35,0,0,0,11.11,4.81,15.79,15.79,0,0,0,8.11-1.95,20.52,20.52,0,0,0,5.81-5.18l5.52,4.3Q1345.23,315.61,1331.94,315.61Zm-1.12-47.36a12.06,12.06,0,0,0-9.18,4q-3.71,4-4.59,11.16h26.47v-.69q-.39-6.88-3.71-10.67A11.37,11.37,0,0,0,1330.82,268.25Z" transform="translate(-11.94 -20.2)"/><path class="cls-3" d="M1393.76,300.62a6.66,6.66,0,0,0-2.76-5.69q-2.76-2-9.62-3.49a45.67,45.67,0,0,1-10.89-3.51,15.48,15.48,0,0,1-6-4.89,11.61,11.61,0,0,1-1.93-6.73,13.71,13.71,0,0,1,5.49-11q5.49-4.49,14-4.49,9,0,14.57,4.64a14.72,14.72,0,0,1,5.6,11.86h-9.09a8.15,8.15,0,0,0-3.15-6.39,11.79,11.79,0,0,0-7.93-2.69q-4.94,0-7.72,2.15a6.76,6.76,0,0,0-2.78,5.61,5.46,5.46,0,0,0,2.59,4.93q2.58,1.67,9.35,3.18a48.73,48.73,0,0,1,11,3.61,16,16,0,0,1,6.23,5.06,12.43,12.43,0,0,1,2,7.2,13.51,13.51,0,0,1-5.66,11.35q-5.67,4.28-14.7,4.27a26.74,26.74,0,0,1-11.23-2.24,18.3,18.3,0,0,1-7.64-6.28,15.1,15.1,0,0,1-2.76-8.71h9a9.39,9.39,0,0,0,3.64,7.2,14.13,14.13,0,0,0,9,2.66,14.53,14.53,0,0,0,8.23-2.08A6.36,6.36,0,0,0,1393.76,300.62Z" transform="translate(-11.94 -20.2)"/><path class="cls-3" d="M1414.61,247.79a5.42,5.42,0,0,1,1.34-3.71,5,5,0,0,1,4-1.51,5.14,5.14,0,0,1,4,1.51,5.34,5.34,0,0,1,1.36,3.71,5.14,5.14,0,0,1-1.36,3.66,5.23,5.23,0,0,1-4,1.47,5.13,5.13,0,0,1-4-1.47A5.21,5.21,0,0,1,1414.61,247.79Zm9.77,66.85h-9V261.8h9Z" transform="translate(-11.94 -20.2)"/><path class="cls-3" d="M1436.68,287.78q0-12.34,5.71-19.65a18.27,18.27,0,0,1,15.14-7.3q9.67,0,15.09,6.83l.44-5.86h8.25v51.57q0,10.25-6.08,16.16t-16.33,5.91a27.26,27.26,0,0,1-11.18-2.44,19.25,19.25,0,0,1-8.35-6.69l4.68-5.42q5.82,7.17,14.21,7.17,6.6,0,10.28-3.71t3.69-10.45v-4.54q-5.43,6.25-14.8,6.25a18,18,0,0,1-15-7.47Q1436.67,300.67,1436.68,287.78Zm9.08,1q0,8.93,3.66,14a11.9,11.9,0,0,0,10.26,5.11q8.53,0,12.55-7.77V276.06q-4.15-7.56-12.45-7.57a12,12,0,0,0-10.31,5.13Q1445.77,278.75,1445.76,288.81Z" transform="translate(-11.94 -20.2)"/><path class="cls-3" d="M1503.48,261.8l.29,6.64a19.27,19.27,0,0,1,15.82-7.61q16.76,0,16.9,18.89v34.92h-9v-35q0-5.71-2.61-8.45c-1.71-1.82-4.37-2.74-8-2.74a13,13,0,0,0-7.72,2.35A15.84,15.84,0,0,0,1504,277v37.65h-9V261.8Z" transform="translate(-11.94 -20.2)"/></svg>